<svg width="23" height="18" viewBox="0 0 23 18" fill="none" xmlns="http://www.w3.org/2000/svg">
<path d="M5.00782 0.0283203C2.60482 0.0283203 1.00781 1.40352 1.00781 3.40332V13.0283C0.455813 13.0283 0.0078125 13.476 0.0078125 14.0283C0.0078125 14.5806 0.455813 15.0283 1.00781 15.0283H3.00782V16.0283C3.00782 16.5806 3.45582 17.0283 4.00782 17.0283C4.55982 17.0283 5.00782 16.5806 5.00782 16.0283V15.0283H17.0078V16.0283C17.0078 16.5806 17.4558 17.0283 18.0078 17.0283C18.5598 17.0283 19.0078 16.5806 19.0078 16.0283V15.0283H21.0078C21.5598 15.0283 22.0078 14.5806 22.0078 14.0283C22.0078 13.476 21.5598 13.0283 21.0078 13.0283V3.40332C21.0078 1.40352 19.4108 0.0283203 17.0078 0.0283203C15.7368 0.0283203 14.7108 0.431821 14.0078 1.09082C13.3048 0.431821 12.2788 0.0283203 11.0078 0.0283203C9.73683 0.0283203 8.71082 0.431821 8.00782 1.09082C7.30482 0.431821 6.27882 0.0283203 5.00782 0.0283203ZM5.00782 2.02832C6.36782 2.02832 7.00782 2.58202 7.00782 3.40332V4.02832H3.00782V3.40332C3.00782 2.58202 3.64782 2.02832 5.00782 2.02832ZM11.0078 2.02832C12.3678 2.02832 13.0078 2.58202 13.0078 3.40332V4.02832H9.00783V3.40332C9.00783 2.58202 9.64783 2.02832 11.0078 2.02832ZM17.0078 2.02832C18.3678 2.02832 19.0078 2.58202 19.0078 3.40332V4.02832H15.0078V3.40332C15.0078 2.58202 15.6478 2.02832 17.0078 2.02832ZM3.00782 6.02832H7.00782V13.0283H3.00782V6.02832ZM9.00783 6.02832H13.0078V13.0283H9.00783V6.02832ZM15.0078 6.02832H19.0078V13.0283H18.0078H15.0078V6.02832Z" fill="black"/>
</svg>
