<svg width="19" height="19" viewBox="0 0 19 19" fill="none" xmlns="http://www.w3.org/2000/svg">
<path d="M4.99023 0.998413C2.78113 0.998413 0.990234 2.78941 0.990234 4.99841V14.9984C0.990234 17.2074 2.78113 18.9984 4.99023 18.9984H14.9902C17.1993 18.9984 18.9902 17.2074 18.9902 14.9984V12.9984V4.99841C18.9902 2.78941 17.1993 0.998413 14.9902 0.998413H4.99023ZM4.99023 2.99841H8.99023V5.99841H2.99023V4.99841C2.99023 3.89341 3.88563 2.99841 4.99023 2.99841ZM10.9902 2.99841H14.9902C16.0948 2.99841 16.9902 3.89341 16.9902 4.99841V11.9984H10.9902V2.99841ZM2.99023 7.99841H8.99023V12.9984V16.9984H4.99023C3.88563 16.9984 2.99023 16.1034 2.99023 14.9984V7.99841ZM10.9902 13.9984H16.9902V14.9984C16.9902 16.1034 16.0948 16.9984 14.9902 16.9984H10.9902V13.9984Z" fill="#8862DB"/>
</svg>
