<svg width="21" height="17" viewBox="0 0 21 17" fill="none" xmlns="http://www.w3.org/2000/svg">
<path d="M4.01368 0.997803C1.80467 0.997803 0.0136719 2.7888 0.0136719 4.9978V12.9978C0.0136719 15.2068 1.80467 16.9978 4.01368 16.9978H16.0137C18.2227 16.9978 20.0137 15.2068 20.0137 12.9978V4.9978C20.0137 2.7888 18.2227 0.997803 16.0137 0.997803H4.01368ZM4.01368 2.9978H16.0137C17.0217 2.9978 17.8547 3.73781 17.9927 4.70781C17.0347 5.60081 15.6107 6.6968 14.6697 7.3728C12.5047 8.9278 10.5997 9.99779 10.0137 9.99779C9.42769 9.99779 7.52268 8.9288 5.35767 7.3728C4.41667 6.6968 3.49168 5.9658 2.79468 5.3728C2.49768 5.1198 2.27767 4.9158 2.10767 4.7478C2.24567 3.7778 3.00568 2.9978 4.01368 2.9978ZM2.02368 7.3518C4.56169 9.4048 8.28068 11.9858 10.0137 11.9978C11.1427 12.0058 13.0737 10.9278 15.0437 9.56679C16.0627 8.8618 17.1967 8.02479 18.0147 7.33779L18.0137 12.9978C18.0137 14.1028 17.1187 14.9978 16.0137 14.9978H4.01368C2.90868 14.9978 2.01367 14.1028 2.01367 12.9978L2.02368 7.3518Z" fill="black"/>
</svg>
