<svg width="21" height="20" viewBox="0 0 21 20" fill="none" xmlns="http://www.w3.org/2000/svg">
<path d="M10.0137 -0.00109863C4.49087 -0.00109863 0.0136719 4.4759 0.0136719 9.9989C0.0136719 15.5219 4.49087 19.9989 10.0137 19.9989C15.5365 19.9989 20.0137 15.5219 20.0137 9.9989C20.0137 4.4759 15.5365 -0.00109863 10.0137 -0.00109863ZM10.0137 1.9989C14.432 1.9989 18.0137 5.5809 18.0137 9.9989C18.0137 14.4169 14.432 17.9989 10.0137 17.9989C5.59537 17.9989 2.01367 14.4169 2.01367 9.9989C2.01367 5.5809 5.59537 1.9989 10.0137 1.9989ZM7.01367 6.9989C6.46137 6.9989 6.01367 7.4469 6.01367 7.9989V8.9989C6.01367 9.5509 6.46137 9.9989 7.01367 9.9989C7.56597 9.9989 8.01367 9.5509 8.01367 8.9989V7.9989C8.01367 7.4469 7.56597 6.9989 7.01367 6.9989ZM13.0137 6.9989C12.4614 6.9989 12.0137 7.4469 12.0137 7.9989V8.9989C12.0137 9.5509 12.4614 9.9989 13.0137 9.9989C13.566 9.9989 14.0137 9.5509 14.0137 8.9989V7.9989C14.0137 7.4469 13.566 6.9989 13.0137 6.9989ZM7.20117 11.8429C6.94527 11.8429 6.67757 11.9289 6.48247 12.1239C6.09207 12.5149 6.09167 13.1399 6.48247 13.5299C7.41327 14.4599 8.67127 14.9989 10.0137 14.9989C11.3515 14.9989 12.6149 14.4549 13.5449 13.5299C13.9367 13.1409 13.9343 12.5159 13.5449 12.1239C13.1556 11.7319 12.5304 11.7349 12.1387 12.1239C11.5796 12.6799 10.8178 12.9989 10.0137 12.9989C9.20677 12.9989 8.44817 12.6829 7.88867 12.1239C7.69327 11.9289 7.45707 11.8429 7.20117 11.8429Z" fill="black"/>
</svg>
